{
.appVersion = "3151";
.formatVersion = 3;
customParameters = (
{
name = vendorID;
value = "M+  ";
},
{
name = panose;
value = (
2,
11,
3,
3,
2,
2,
3,
2,
2,
7
);
},
{
name = unicodeRanges;
value = (
0,
1,
2,
3,
4,
5,
6,
7,
9,
11,
24,
29,
30,
31,
32,
33,
35,
36,
37,
38,
39,
40,
42,
43,
44,
45,
46,
47,
48,
49,
50,
54,
57,
59,
61,
62,
65,
68,
89
);
},
{
name = codePageRanges;
value = (
"1252",
"1250",
"1251",
"1253",
"1254",
"1255",
"1257",
"1258",
"932",
"950",
"bit 29",
"bit 30",
"869",
"866",
"865",
"863",
"862",
"861",
"860",
"857",
"855",
"852",
"775",
"737",
"850",
"437"
);
},
{
name = fsType;
value = (
);
}
);
date = "2015-05-28 17:12:02 +0000";
familyName = "Yaku Han RP";
featurePrefixes = (
{
automatic = 1;
code = "languagesystem DFLT dflt;
";
name = Languagesystems;
}
);
features = (
{
automatic = 1;
code = "feature vert;
feature vrt2;
";
tag = aalt;
},
{
automatic = 1;
code = "sub comma-han by comma-han.vert;
sub period-han by period-han.vert;
sub colon.full by colon.full.vert;
sub anglebracketleft by anglebracketleft.vert;
sub anglebracketright by anglebracketright.vert;
sub blacklenticularbracketleft by blacklenticularbracketleft.vert;
sub blacklenticularbracketright by blacklenticularbracketright.vert;
sub cornerbracketleft by cornerbracketleft.vert;
sub cornerbracketright by cornerbracketright.vert;
sub dblanglebracketleft by dblanglebracketleft.vert;
sub dblanglebracketright by dblanglebracketright.vert;
sub tortoiseshellbracketleft by tortoiseshellbracketleft.vert;
sub tortoiseshellbracketright by tortoiseshellbracketright.vert;
sub whitecornerbracketleft by whitecornerbracketleft.vert;
sub whitecornerbracketright by whitecornerbracketright.vert;
sub whitelenticularbracketleft by whitelenticularbracketleft.vert;
sub whitelenticularbracketright by whitelenticularbracketright.vert;
sub braceleft.full by braceleft.full.vert;
sub braceright.full by braceright.full.vert;
sub bracketleft.full by bracketleft.full.vert;

glyphs = (
{
glyphname = "comma-han";
lastChange = "2023-08-27 07:26:29 +0000";
layers = (
{
layerId = m01;
shapes = (
{
closed = 1;
nodes = (
(297,-18,o),
(290,-11,qs),
(198,93,o),
(94,185,q),
(88,192,o),
(80,184,qs),
(74,178,o),
(81,170,q),
(184,79,o),
(275,-24,qs),
(283,-32,o)
);
}
);
vertWidth = 1000;
width = 1000;
}
);
note = uni3001;
unicode = 12289;
},
{
glyphname = "comma-han.vert";
lastChange = "2023-08-27 07:26:29 +0000";
layers = (
{
layerId = m01;
shapes = (
{
closed = 1;
nodes = (
(926,542,o),
(919,549,qs),
(827,653,o),
(723,745,qs),
(716,752,o),
(709,744,qs),
(702,738,o),
(710,730,qs),
(813,639,o),
(904,536,qs),
(912,528,o)
);
}
);
vertWidth = 1000;
width = 1000;
}
);
note = glyph08466;
},
{
glyphname = "period-han";
lastChange = "2023-08-27 07:26:29 +0000";
layers = (
{
layerId = m01;
shapes = (
{
closed = 1;
nodes = (
(340,30,o),
(270,-40,o),
(170,-40,o),
(100,30,o),
(100,130,o),
(170,200,o),
(270,200,o),
(340,130,o)
);
},
{
closed = 1;
nodes = (
(360,138,o),
(278,220,o),
(162,220,o),
(80,138,o),
(80,22,o),
(162,-60,o),
(278,-60,o),
(360,22,o)
);
}
);
vertWidth = 1000;
width = 1000;
}
);
note = uni3002;
unicode = 12290;
},
{
glyphname = "period-han.vert";
lastChange = "2023-08-27 07:26:29 +0000";
layers = (
{
layerId = m01;
shapes = (
{
closed = 1;
nodes = (
(900,590,o),
(830,520,o),
(730,520,o),
(660,590,o),
(660,690,o),
(730,760,o),
(830,760,o),
(900,690,o)
);
},
{
closed = 1;
nodes = (
(920,698,o),
(838,780,o),
(722,780,o),
(640,698,o),
(640,582,o),
(722,500,o),
(838,500,o),
(920,582,o)
);
}
);
vertWidth = 1000;
width = 1000;
}
);
note = glyph08467;
},
{
glyphname = "dot-kata";
lastChange = "2023-08-27 07:26:29 +0000";
layers = (
{
layerId = m01;
shapes = (
{
closed = 1;
nodes = (
(510,410,ls),
(510,420,o),
(490,420,o),
(490,410,qs),
(490,310,ls),
(490,300,o),
(510,300,o),
(510,310,qs)
);
}
);
vertWidth = 1000;
width = 1000;
}
);
note = uni30FB;
unicode = 12539;
},
{
glyphname = hyphenationpoint;
lastChange = "2023-08-27 07:26:29 +0000";
layers = (
{
layerId = m01;
shapes = (
{
closed = 1;
nodes = (
(156,340,ls),
(156,350,o),
(136,350,o),
(136,340,qs),
(136,240,ls),
(136,230,o),
(156,230,o),
(156,240,qs)
);
}
);
vertWidth = 1000;
width = 292;
}
);
note = uni2027;
unicode = 8231;
},
{
glyphname = colon.full;
lastChange = "2023-08-27 07:26:29 +0000";
layers = (
{
layerId = m01;
shapes = (
{
closed = 1;
nodes = (
(510,190,ls),
(510,200,o),
(490,200,o),
(490,190,qs),
(490,100,ls),
(490,90,o),
(510,90,o),
(510,100,qs)
);
},
{
closed = 1;
nodes = (
(510,620,ls),
(510,630,o),
(490,630,o),
(490,620,qs),
(490,530,ls),
(490,520,o),
(510,520,o),
(510,530,qs)
);
}
);
vertWidth = 1000;
width = 1000;
}
);
note = uniFF1A;
unicode = 65306;
},
{
glyphname = exclam.full;
lastChange = "2023-08-27 07:26:29 +0000";
layers = (
{
layerId = m01;
shapes = (
{
closed = 1;
nodes = (
(510,720,ls),
(510,730,o),
(490,730,o),
(490,720,qs),
(490,200,ls),
(490,190,o),
(510,190,o),
(510,200,qs)
);
},
{
closed = 1;
nodes = (
(510,100,ls),
(510,110,o),
(490,110,o),
(490,100,qs),
(490,10,ls),
(490,0,o),
(510,0,o),
(510,10,qs)
);
}
);
vertWidth = 1000;
width = 1000;
}
);
note = uniFF01;
unicode = 65281;
},
{
glyphname = question.full;
lastChange = "2023-08-27 07:26:29 +0000";
layers = (
{
layerId = m01;
shapes = (
{
closed = 1;
nodes = (
(505,720,qs),
(620,720,o),
(745,652,o),
(745,590,qs),
(745,557,o),
(724,504,o),
(677,460,o),
(640,434,o),
(605,414,qs),
(567,392,o),
(526,363,o),
(470,310,o),
(442,243,o),
(440,200,qs),
(440,190,o),
(460,190,o),
(460,201,qs),
(462,240,o),
(486,299,o),
(539,348,o),
(576,373,o),
(615,397,qs),
(652,418,o),
(691,445,o),
(742,493,o),
(765,553,o),
(765,590,qs),
(765,661,o),
(629,740,o),
(505,740,qs),
(384,740,o),
(272,707,q),
(262,703,o),
(265,695,qs),
(269,685,o),
(277,688,qs),
(388,720,o)
);
},
{
closed = 1;
nodes = (
(440,10,ls),
(440,0,o),
(460,0,o),
(460,10,qs),
(460,100,ls),
(460,110,o),
(440,110,o),
(440,100,qs)
);
}
);
vertWidth = 1000;
width = 1000;
}
);
note = uniFF1F;
unicode = 65311;
},
{
glyphname = semicolon.full;
lastChange = "2023-08-27 07:26:29 +0000";
layers = (
{
layerId = m01;
shapes = (
{
closed = 1;
nodes = (
(455,-10,qs),
(528,190,ls),
(529,194,o),
(525,200,o),
(521,200,qs),
(510,200,o),
(507,190,qs),
(434,-10,ls),
(433,-14,o),
(437,-20,o),
(441,-20,qs),
(452,-20,o)
);
},
{
closed = 1;
nodes = (
(515,620,ls),
(515,630,o),
(495,630,o),
(495,620,qs),
(495,530,ls),
(495,520,o),
(515,520,o),
(515,530,qs)
);
}
);
vertWidth = 1000;
width = 1000;
}
);
note = uniFF1B;
unicode = 65307;
},
{
glyphname = colon.full.vert;
lastChange = "2023-08-27 07:26:29 +0000";
layers = (
{
layerId = m01;
shapes = (
{
closed = 1;
nodes = (
(510,190,ls),
(510,200,o),
(490,200,o),
(490,190,qs),
(490,100,ls),
(490,90,o),
(510,90,o),
(510,100,qs)
);
},
{
closed = 1;
nodes = (
(510,620,ls),
(510,630,o),
(490,630,o),
(490,620,qs),
(490,530,ls),
(490,520,o),
(510,520,o),
(510,530,qs)
);
}
);
vertWidth = 1000;
width = 1000;
}
);
note = glyph08518;
},
{
glyphname = angleLeft;
lastChange = "2023-08-27 07:26:29 +0000";
layers = (
{
layerId = m01;
shapes = (
{
closed = 1;
nodes = (
(317,-110,qs),
(321,-110,o),
(324,-103,o),
(322,-100,qs),
(53,323,ls),
(48,330,o),
(53,337,qs),
(322,760,ls),
(324,763,o),
(321,770,o),
(317,770,qs),
(306,770,o),
(299,760,qs),
(55,378,ls),
(41,356,o),
(41,304,o),
(55,282,qs),
(299,-100,ls),
(306,-110,o)
);
}
);
vertWidth = 1000;
width = 369;
}
);
note = angleleft;
unicode = 9001;
},
{
glyphname = angleRight;
lastChange = "2023-08-27 07:26:29 +0000";
layers = (
{
layerId = m01;
shapes = (
{
closed = 1;
nodes = (
(48,-110,o),
(52,-110,qs),
(64,-110,o),
(70,-100,qs),
(314,282,ls),
(328,304,o),
(328,356,o),
(314,378,qs),
(70,760,ls),
(64,770,o),
(52,770,qs),
(48,770,o),
(45,763,o),
(47,760,qs),
(316,337,ls),
(321,330,o),
(316,323,qs),
(47,-100,ls),
(45,-103,o)
);
}
);
vertWidth = 1000;
width = 369;
}
);
note = angleright;
unicode = 9002;
},
{
glyphname = anglebracketleft;
lastChange = "2023-08-27 07:26:29 +0000";
layers = (
{
layerId = m01;
shapes = (
{
closed = 1;
nodes = (
(891,800,o),
(887,800,qs),
(876,800,o),
(869,790,qs),
(625,408,ls),
(594,360,o),
(625,312,qs),
(869,-70,ls),
(876,-80,o),
(887,-80,qs),
(891,-80,o),
(894,-73,o),
(892,-70,qs),
(623,353,ls),
(618,360,o),
(623,367,qs),
(892,790,ls),
(894,793,o)
);
}
);
vertWidth = 1000;
width = 1000;
}
);
note = uni3008;
unicode = 12296;
},
{
glyphname = anglebracketright;
lastChange = "2023-08-27 07:26:29 +0000";
layers = (
{
layerId = m01;
shapes = (
{
closed = 1;
nodes = (
(406,360,o),
(375,408,qs),
(131,790,ls),
(124,800,o),
(113,800,qs),
(109,800,o),
(106,793,o),
(108,790,qs),
(377,367,ls),
(382,360,o),
(377,353,qs),
(108,-70,ls),
(106,-73,o),
(109,-80,o),
(113,-80,qs),
(124,-80,o),
(131,-70,qs),
(375,312,ls)
);
}
);
vertWidth = 1000;
width = 1000;
}
);
note = uni3009;
unicode = 12297;
},
{
glyphname = blacklenticularbracketleft;
lastChange = "2023-08-27 07:26:29 +0000";
layers = (
{
layerId = m01;
shapes = (
{
closed = 1;
nodes = (
(858,-80,o),
(870,-52,o),
(860,-41,qs),
(783,42,o),
(700,251,o),
(700,469,o),
(783,678,o),
(860,761,qs),
(870,772,o),
(858,800,o),
(843,800,qs),
(687,800,ls),
(664,800,o),
(630,766,o),
(630,743,qs),
(630,-23,ls),
(630,-46,o),
(664,-80,o),
(687,-80,qs),
(843,-80,ls)
);
}
);
vertWidth = 1000;
width = 1000;
}
);
note = uni3010;
unicode = 12304;
},
{
glyphname = blacklenticularbracketright;
lastChange = "2023-08-27 07:26:29 +0000";
layers = (
{
layerId = m01;
shapes = (
{
closed = 1;
nodes = (
(336,-80,o),
(370,-46,o),
(370,-23,qs),
(370,743,ls),
(370,766,o),
(336,800,o),
(313,800,qs),
(157,800,ls),
(142,800,o),
(130,772,o),
(140,761,qs),
(217,678,o),
(300,469,o),
(300,251,o),
(217,42,o),
(140,-41,qs),
(130,-52,o),
(142,-80,o),
(157,-80,qs),
(313,-80,ls)
);
}
);
vertWidth = 1000;
width = 1000;
}
);
note = uni3011;
unicode = 12305;
},
{
glyphname = braceleft.full;
lastChange = "2023-08-27 07:26:29 +0000";
layers = (
{
layerId = m01;
shapes = (
{
closed = 1;
nodes = (
(645,500,qs),
(645,660,ls),
(645,730,o),
(695,780,o),
(745,780,qs),
(885,780,ls),
(895,780,o),
(895,800,o),
(885,800,qs),
(745,800,ls),
(682,800,o),
(625,734,o),
(625,660,qs),
(625,500,ls),
(625,441,o),
(582,370,o),
(545,370,qs),
(475,370,ls),
(465,370,o),
(465,350,o),
(475,350,qs),
(545,350,ls),
(582,350,o),
(625,279,o),
(625,220,qs),
(625,60,ls),
(625,-14,o),
(682,-80,o),
(745,-80,qs),
(885,-80,ls),
(895,-80,o),
(895,-60,o),
(885,-60,qs),
(745,-60,ls),
(695,-60,o),
(645,-10,o),
(645,60,qs),
(645,220,ls),
(645,324,o),
(587,358,q),
(585,358,o),
(585,362,o),
(587,362,q),
(645,396,o)
);
}
);
vertWidth = 1000;
width = 1000;
}
);
note = uniFF5B;
unicode = 65371;
},
{
glyphname = braceright.full;
lastChange = "2023-08-27 07:26:29 +0000";
layers = (
{
layerId = m01;
shapes = (
{
closed = 1;
nodes = (
(355,220,qs),
(355,60,ls),
(355,-10,o),
(305,-60,o),
(255,-60,qs),
(115,-60,ls),
(105,-60,o),
(105,-80,o),
(115,-80,qs),
(255,-80,ls),
(318,-80,o),
(375,-14,o),
(375,60,qs),
(375,220,ls),
(375,279,o),
(418,350,o),
(455,350,qs),
(525,350,ls),
(535,350,o),
(535,370,o),
(525,370,qs),
(455,370,ls),
(418,370,o),
(375,441,o),
(375,500,qs),
(375,660,ls),
(375,734,o),
(318,800,o),
(255,800,qs),
(115,800,ls),
(105,800,o),
(105,780,o),
(115,780,qs),
(255,780,ls),
(305,780,o),
(355,730,o),
(355,660,qs),
(355,500,ls),
(355,396,o),
(413,362,q),
(415,362,o),
(415,358,o),
(413,358,q),
(355,324,o)
);
}
);
vertWidth = 1000;
width = 1000;
}
);
note = uniFF5D;
unicode = 65373;
},
{
glyphname = cornerbracketleft;
lastChange = "2023-08-27 07:26:29 +0000";
layers = (
{
layerId = m01;
shapes = (
{
closed = 1;
nodes = (
(600,791,ls),
(600,800,o),
(609,800,qs),
(920,800,ls),
(930,800,o),
(930,820,o),
(920,820,qs),
(637,820,ls),
(614,820,o),
(580,786,o),
(580,763,qs),
(580,80,ls),
(580,70,o),
(600,70,o),
(600,80,qs)
);
}
);
vertWidth = 1000;
width = 1000;
}
);
note = uni300C;
unicode = 12300;
},
{
glyphname = cornerbracketright;
lastChange = "2023-08-27 07:26:29 +0000";
layers = (
{
layerId = m01;
shapes = (
{
closed = 1;
nodes = (
(386,-100,o),
(420,-66,o),
(420,-43,qs),
(420,640,ls),
(420,650,o),
(400,650,o),
(400,640,qs),
(400,-71,ls),
(400,-80,o),
(391,-80,qs),
(80,-80,ls),
(70,-80,o),
(70,-100,o),
(80,-100,qs),
(363,-100,ls)
);
}
);
vertWidth = 1000;
width = 1000;
}
);
note = uni300D;
unicode = 12301;
},
{
glyphname = dblanglebracketleft;
lastChange = "2023-08-27 07:26:29 +0000";
layers = (
{
layerId = m01;
shapes = (
{
closed = 1;
nodes = (
(891,800,o),
(887,800,qs),
(876,800,o),
(869,790,qs),
(625,408,ls),
(594,360,o),
(625,312,qs),
(869,-70,ls),
(876,-80,o),
(887,-80,qs),
(891,-80,o),
(894,-73,o),
(892,-70,qs),
(623,353,ls),
(618,360,o),
(623,367,qs),
(892,790,ls),
(894,793,o)
);
},
{
closed = 1;
nodes = (
(767,-80,qs),
(771,-80,o),
(774,-73,o),
(772,-70,qs),
(503,353,ls),
(498,360,o),
(503,367,qs),
(772,790,ls),
(774,793,o),
(771,800,o),
(767,800,qs),
(756,800,o),
(749,790,qs),
(505,408,ls),
(474,360,o),
(505,312,qs),
(749,-70,ls),
(756,-80,o)
);
}
);
vertWidth = 1000;
width = 1000;
}
);
note = uni300A;
unicode = 12298;
},
{
glyphname = dblanglebracketright;
lastChange = "2023-08-27 07:26:29 +0000";
layers = (
{
layerId = m01;
shapes = (
{
closed = 1;
nodes = (
(406,360,o),
(375,408,qs),
(131,790,ls),
(124,800,o),
(113,800,qs),
(109,800,o),
(106,793,o),
(108,790,qs),
(377,367,ls),
(382,360,o),
(377,353,qs),
(108,-70,ls),
(106,-73,o),
(109,-80,o),
(113,-80,qs),
(124,-80,o),
(131,-70,qs),
(375,312,ls)
);
},
{
closed = 1;
nodes = (
(497,353,qs),
(228,-70,ls),
(226,-73,o),
(229,-80,o),
(233,-80,qs),
(244,-80,o),
(251,-70,qs),
(495,312,ls),
(526,360,o),
(495,408,qs),
(251,790,ls),
(244,800,o),
(233,800,qs),
(229,800,o),
(226,793,o),
(228,790,qs),
(497,367,ls),
(502,360,o)
);
}
);
vertWidth = 1000;
width = 1000;
}
);
note = uni300B;
unicode = 12299;
},
{
glyphname = tortoiseshellbracketleft;
lastChange = "2023-08-27 07:26:29 +0000";
layers = (
{
layerId = m01;
shapes = (
{
closed = 1;
nodes = (
(869,-82,o),
(875,-78,o),
(875,-74,qs),
(875,-63,o),
(865,-60,qs),
(593,46,ls),
(585,49,o),
(585,57,qs),
(585,663,ls),
(585,671,o),
(593,674,qs),
(865,780,ls),
(875,783,o),
(875,794,qs),
(875,798,o),
(869,802,o),
(865,801,q),
(618,705,ls),
(594,696,o),
(565,654,o),
(565,628,qs),
(565,92,ls),
(565,66,o),
(594,24,o),
(618,15,qs),
(865,-81,l)
);
}
);
vertWidth = 1000;
width = 1000;
}
);
note = uni3014;
unicode = 12308;
},
{
glyphname = tortoiseshellbracketright;
lastChange = "2023-08-27 07:26:29 +0000";
layers = (
{
layerId = m01;
shapes = (
{
closed = 1;
nodes = (
(125,-63,o),
(125,-74,qs),
(125,-78,o),
(131,-82,o),
(135,-81,q),
(382,15,ls),
(406,24,o),
(435,66,o),
(435,92,qs),
(435,628,ls),
(435,654,o),
(406,696,o),
(382,705,qs),
(135,801,l),
(131,802,o),
(125,798,o),
(125,794,qs),
(125,783,o),
(135,780,qs),
(407,674,ls),
(415,671,o),
(415,663,qs),
(415,57,ls),
(415,49,o),
(407,46,qs),
(135,-60,ls)
);
}
);
vertWidth = 1000;
width = 1000;
}
);
note = uni3015;
unicode = 12309;
},
{
glyphname = whitecornerbracketleft;
lastChange = "2023-08-27 07:26:29 +0000";
layers = (
{
layerId = m01;
shapes = (
{
closed = 1;
nodes = (
(579,800,qs),
(902,800,ls),
(910,800,o),
(910,791,qs),
(910,738,ls),
(910,730,o),
(902,730,qs),
(697,730,ls),
(674,730,o),
(640,696,o),
(640,673,qs),
(640,68,ls),
(640,60,o),
(632,60,qs),
(579,60,ls),
(570,60,o),
(570,68,qs),
(570,791,ls),
(570,800,o)
);
},
{
closed = 1;
nodes = (
(660,95,qs),
(660,701,ls),
(660,710,o),
(669,710,qs),
(875,710,ls),
(898,710,o),
(930,742,o),
(930,788,o),
(898,820,o),
(875,820,qs),
(607,820,ls),
(584,820,o),
(550,786,o),
(550,763,qs),
(550,95,ls),
(550,72,o),
(582,40,o),
(628,40,o),
(660,72,o)
);
}
);
vertWidth = 1000;
width = 1000;
}
);
note = uni300E;
unicode = 12302;
},
{
glyphname = whitecornerbracketright;
lastChange = "2023-08-27 07:26:29 +0000";
layers = (
{
layerId = m01;
shapes = (
{
closed = 1;
nodes = (
(99,-10,qs),
(303,-10,ls),
(326,-10,o),
(360,24,o),
(360,47,qs),
(360,651,ls),
(360,660,o),
(369,660,qs),
(422,660,ls),
(430,660,o),
(430,651,qs),
(430,-72,ls),
(430,-80,o),
(422,-80,qs),
(99,-80,ls),
(90,-80,o),
(90,-72,qs),
(90,-19,ls),
(90,-10,o)
);
},
{
closed = 1;
nodes = (
(416,-100,o),
(450,-66,o),
(450,-43,qs),
(450,625,ls),
(450,648,o),
(418,680,o),
(372,680,o),
(340,648,o),
(340,625,qs),
(340,19,ls),
(340,10,o),
(331,10,qs),
(125,10,ls),
(102,10,o),
(70,-22,o),
(70,-68,o),
(102,-100,o),
(125,-100,qs),
(393,-100,ls)
);
}
);
vertWidth = 1000;
width = 1000;
}
);
note = uni300F;
unicode = 12303;
},
{
glyphname = whitelenticularbracketleft;
lastChange = "2023-08-27 07:26:29 +0000";
layers = (
{
layerId = m01;
shapes = (
{
closed = 1;
nodes = (
(639,780,qs),
(846,780,ls),
(854,780,o),
(849,773,qs),
(778,687,o),
(700,473,o),
(700,247,o),
(778,33,o),
(849,-53,q),
(850,-55,o),
(848,-60,o),
(846,-60,qs),
(639,-60,ls),
(630,-60,o),
(630,-51,qs),
(630,771,ls),
(630,780,o)
);
},
{
closed = 1;
nodes = (
(859,-80,o),
(873,-51,o),
(862,-38,qs),
(794,45,o),
(720,252,o),
(720,468,o),
(794,675,o),
(862,758,qs),
(873,771,o),
(859,800,o),
(843,800,qs),
(667,800,ls),
(644,800,o),
(610,766,o),
(610,743,qs),
(610,-23,ls),
(610,-46,o),
(644,-80,o),
(667,-80,qs),
(843,-80,ls)
);
}
);
vertWidth = 1000;
width = 1000;
}
);
note = uni3016;
unicode = 12310;
},
{
glyphname = whitelenticularbracketright;
lastChange = "2023-08-27 07:26:29 +0000";
layers = (
{
layerId = m01;
shapes = (
{
closed = 1;
nodes = (
(300,247,o),
(300,473,o),
(222,687,o),
(151,773,q),
(150,775,o),
(152,780,o),
(154,780,qs),
(361,780,ls),
(370,780,o),
(370,771,qs),
(370,-52,ls),
(370,-60,o),
(361,-60,qs),
(154,-60,ls),
(146,-60,o),
(151,-53,qs),
(222,33,o)
);
},
{
closed = 1;
nodes = (
(356,-80,o),
(390,-46,o),
(390,-23,qs),
(390,743,ls),
(390,766,o),
(356,800,o),
(333,800,qs),
(157,800,ls),
(141,800,o),
(127,771,o),
(138,758,qs),
(206,675,o),
(280,468,o),
(280,252,o),
(206,45,o),
(138,-38,qs),
(127,-51,o),
(141,-80,o),
(157,-80,qs),
(333,-80,ls)
);
}
);
vertWidth = 1000;
width = 1000;
}
);
note = uni3017;
unicode = 12311;
},
{
glyphname = anglebracketleft.vert;
lastChange = "2023-08-27 07:26:29 +0000";
layers = (
{
layerId = m01;
shapes = (
{
closed = 1;
nodes = (
(940,-31,o),
(940,-27,qs),
(940,-16,o),
(930,-9,qs),
(548,235,ls),
(500,266,o),
(452,235,qs),
(70,-9,ls),
(60,-16,o),
(60,-27,qs),
(60,-31,o),
(67,-34,o),
(70,-32,qs),
(493,237,ls),
(500,242,o),
(507,237,qs),
(930,-32,ls),
(933,-34,o)
);
}
);
vertWidth = 1000;
width = 1000;
}
);
note = glyph08468;
},
{
glyphname = anglebracketright.vert;
lastChange = "2023-08-27 07:26:29 +0000";
layers = (
{
layerId = m01;
shapes = (
{
closed = 1;
nodes = (
(500,454,o),
(548,485,qs),
(930,729,ls),
(940,736,o),
(940,747,qs),
(940,751,o),
(933,754,o),
(930,752,qs),
(507,483,ls),
(500,478,o),
(493,483,qs),
(70,752,ls),
(67,754,o),
(60,751,o),
(60,747,qs),
(60,736,o),
(70,729,qs),
(452,485,ls)
);
}
);
vertWidth = 1000;
width = 1000;
}
);
note = glyph08469;
},
{
glyphname = blacklenticularbracketleft.vert;
lastChange = "2023-08-27 07:26:29 +0000";
layers = (
{
layerId = m01;
shapes = (
{
closed = 1;
nodes = (
(60,2,o),
(88,-10,o),
(99,0,qs),
(182,77,o),
(391,160,o),
(609,160,o),
(818,77,o),
(901,0,qs),
(912,-10,o),
(940,2,o),
(940,17,qs),
(940,173,ls),
(940,196,o),
(906,230,o),
(883,230,qs),
(117,230,ls),
(94,230,o),
(60,196,o),
(60,173,qs),
(60,17,ls)
);
}
);
vertWidth = 1000;
width = 1000;
}
);
note = glyph08476;
},
{
glyphname = blacklenticularbracketright.vert;
lastChange = "2023-08-27 07:26:29 +0000";
layers = (
{
layerId = m01;
shapes = (
{
closed = 1;
nodes = (
(60,524,o),
(94,490,o),
(117,490,qs),
(883,490,ls),
(906,490,o),
(940,524,o),
(940,547,qs),
(940,703,ls),
(940,718,o),
(912,730,o),
(901,720,qs),
(818,643,o),
(609,560,o),
(391,560,o),
(182,643,o),
(99,720,qs),
(88,730,o),
(60,718,o),
(60,703,qs),
(60,547,ls)
);
}
);
vertWidth = 1000;
width = 1000;
}
);
note = glyph08477;
},
{
glyphname = bracketleft.full;
lastChange = "2023-08-27 07:26:29 +0000";
layers = (
{
layerId = m01;
shapes = (
{
closed = 1;
nodes = (
(875,-80,o),
(875,-60,o),
(865,-60,qs),
(594,-60,ls),
(585,-60,o),
(585,-51,qs),
(585,772,ls),
(585,780,o),
(594,780,qs),
(865,780,ls),
(875,780,o),
(875,800,o),
(865,800,qs),
(622,800,ls),
(599,800,o),
(565,766,o),
(565,743,qs),
(565,-23,ls),
(565,-46,o),
(599,-80,o),
(622,-80,qs),
(865,-80,ls)
);
}
);
vertWidth = 1000;
width = 1000;
}
);
note = uniFF3B;
unicode = 65339;
},
{
glyphname = bracketright.full;
lastChange = "2023-08-27 07:26:29 +0000";
layers = (
{
layerId = m01;
shapes = (
{
closed = 1;
nodes = (
(125,-60,o),
(125,-80,o),
(135,-80,qs),
(378,-80,ls),
(401,-80,o),
(435,-46,o),
(435,-23,qs),
(435,743,ls),
(435,766,o),
(401,800,o),
(378,800,qs),
(135,800,ls),
(125,800,o),
(125,780,o),
(135,780,qs),
(406,780,ls),
(415,780,o),
(415,771,qs),
(415,-52,ls),
(415,-60,o),
(406,-60,qs),
(135,-60,ls)
);
}
);
vertWidth = 1000;
width = 1000;
}
);
note = uniFF3D;
unicode = 65341;
},
{
glyphname = cornerbracketleft.vert;
lastChange = "2023-08-27 07:26:29 +0000";
layers = (
{
layerId = m01;
shapes = (
{
closed = 1;
nodes = (
(931,260,ls),
(940,260,o),
(940,251,qs),
(940,-60,ls),
(940,-70,o),
(960,-70,o),
(960,-60,qs),
(960,223,ls),
(960,246,o),
(926,280,o),
(903,280,qs),
(220,280,ls),
(210,280,o),
(210,260,o),
(220,260,qs)
);
}
);
vertWidth = 1000;
width = 1000;
}
);
note = glyph08472;
},
{
glyphname = cornerbracketright.vert;
lastChange = "2023-08-27 07:26:29 +0000";
layers = (
{
layerId = m01;
shapes = (
{
closed = 1;
nodes = (
(40,474,o),
(74,440,o),
(97,440,qs),
(780,440,ls),
(790,440,o),
(790,460,o),
(780,460,qs),
(69,460,ls),
(60,460,o),
(60,469,qs),
(60,780,ls),
(60,790,o),
(40,790,o),
(40,780,qs),
(40,497,ls)
);
}
);
vertWidth = 1000;
width = 1000;
}
);
note = glyph08473;
},
{
glyphname = dblanglebracketleft.vert;
lastChange = "2023-08-27 07:26:29 +0000";
layers = (
{
layerId = m01;
shapes = (
{
closed = 1;
nodes = (
(940,-31,o),
(940,-27,qs),
(940,-16,o),
(930,-9,qs),
(548,235,ls),
(500,266,o),
(452,235,qs),
(70,-9,ls),
(60,-16,o),
(60,-27,qs),
(60,-31,o),
(67,-34,o),
(70,-32,qs),
(493,237,ls),
(500,242,o),
(507,237,qs),
(930,-32,ls),
(933,-34,o)
);
},
{
closed = 1;
nodes = (
(60,93,qs),
(60,89,o),
(67,86,o),
(70,88,qs),
(493,357,ls),
(500,362,o),
(507,357,qs),
(930,88,ls),
(933,86,o),
(940,89,o),
(940,93,qs),
(940,104,o),
(930,111,qs),
(548,355,ls),
(500,386,o),
(452,355,qs),
(70,111,ls),
(60,104,o)
);
}
);
vertWidth = 1000;
width = 1000;
}
);
note = glyph08470;
},
{
glyphname = dblanglebracketright.vert;
lastChange = "2023-08-27 07:26:29 +0000";
layers = (
{
layerId = m01;
shapes = (
{
closed = 1;
nodes = (
(500,454,o),
(548,485,qs),
(930,729,ls),
(940,736,o),
(940,747,qs),
(940,751,o),
(933,754,o),
(930,752,qs),
(507,483,ls),
(500,478,o),
(493,483,qs),
(70,752,ls),
(67,754,o),
(60,751,o),
(60,747,qs),
(60,736,o),
(70,729,qs),
(452,485,ls)
);
},
{
closed = 1;
nodes = (
(493,363,qs),
(70,632,ls),
(67,634,o),
(60,631,o),
(60,627,qs),
(60,616,o),
(70,609,qs),
(452,365,ls),
(500,334,o),
(548,365,qs),
(930,609,ls),
(940,616,o),
(940,627,qs),
(940,631,o),
(933,634,o),
(930,632,qs),
(507,363,ls),
(500,358,o)
);
}
);
vertWidth = 1000;
width = 1000;
}
);
note = glyph08471;
},
{
glyphname = parenleft.full;
lastChange = "2023-08-27 07:26:29 +0000";
layers = (
{
layerId = m01;
shapes = (
{
closed = 1;
nodes = (
(849,-80,qs),
(852,-80,o),
(855,-73,o),
(853,-71,qs),
(645,99,o),
(645,621,o),
(853,791,qs),
(856,793,o),
(853,800,o),
(849,800,qs),
(834,800,o),
(822,790,qs),
(625,617,o),
(625,103,o),
(822,-70,qs),
(834,-80,o)
);
}
);
vertWidth = 1000;
width = 1000;
}
);
note = uniFF08;
unicode = 65288;
},
{
glyphname = parenright.full;
lastChange = "2023-08-27 07:26:29 +0000";
layers = (
{
layerId = m01;
shapes = (
{
closed = 1;
nodes = (
(147,-80,o),
(151,-80,qs),
(166,-80,o),
(178,-70,qs),
(375,103,o),
(375,617,o),
(178,790,qs),
(166,800,o),
(151,800,qs),
(148,800,o),
(145,793,o),
(147,791,qs),
(355,621,o),
(355,99,o),
(147,-71,qs),
(144,-73,o)
);
}
);
vertWidth = 1000;
width = 1000;
}
);
note = uniFF09;
unicode = 65289;
},
{
glyphname = tortoiseshellbracketleft.vert;
lastChange = "2023-08-27 07:26:29 +0000";
layers = (
{
layerId = m01;
shapes = (
{
closed = 1;
nodes = (
(58,-9,o),
(62,-15,o),
(66,-15,qs),
(77,-15,o),
(80,-5,qs),
(186,267,ls),
(189,275,o),
(197,275,qs),
(803,275,ls),
(811,275,o),
(814,267,qs),
(920,-5,ls),
(923,-15,o),
(934,-15,qs),
(938,-15,o),
(942,-9,o),
(941,-5,q),
(845,242,ls),
(836,266,o),
(794,295,o),
(768,295,qs),
(232,295,ls),
(206,295,o),
(164,266,o),
(155,242,qs),
(59,-5,l)
);
}
);
vertWidth = 1000;
width = 1000;
}
);
note = glyph08479;
},
{
glyphname = tortoiseshellbracketright.vert;
lastChange = "2023-08-27 07:26:29 +0000";
layers = (
{
layerId = m01;
shapes = (
{
closed = 1;
nodes = (
(77,735,o),
(66,735,qs),
(62,735,o),
(58,729,o),
(59,725,q),
(155,478,ls),
(164,454,o),
(206,425,o),
(232,425,qs),
(768,425,ls),
(794,425,o),
(836,454,o),
(845,478,qs),
(941,725,l),
(942,729,o),
(938,735,o),
(934,735,qs),
(923,735,o),
(920,725,qs),
(814,453,ls),
(811,445,o),
(803,445,qs),
(197,445,ls),
(189,445,o),
(186,453,qs),
(80,725,ls)
);
}
);
vertWidth = 1000;
width = 1000;
}
);
note = glyph08480;
},
{
glyphname = whitecornerbracketleft.vert;
lastChange = "2023-08-27 07:26:29 +0000";
layers = (
{
layerId = m01;
shapes = (
{
closed = 1;
nodes = (
(940,281,qs),
(940,-42,ls),
(940,-50,o),
(931,-50,qs),
(878,-50,ls),
(870,-50,o),
(870,-42,qs),
(870,163,ls),
(870,186,o),
(836,220,o),
(813,220,qs),
(208,220,ls),
(200,220,o),
(200,228,qs),
(200,281,ls),
(200,290,o),
(208,290,qs),
(931,290,ls),
(940,290,o)
);
},
{
closed = 1;
nodes = (
(235,200,qs),
(841,200,ls),
(850,200,o),
(850,191,qs),
(850,-15,ls),
(850,-38,o),
(882,-70,o),
(928,-70,o),
(960,-38,o),
(960,-15,qs),
(960,253,ls),
(960,276,o),
(926,310,o),
(903,310,qs),
(235,310,ls),
(212,310,o),
(180,278,o),
(180,232,o),
(212,200,o)
);
}
);
vertWidth = 1000;
width = 1000;
}
);
note = glyph08474;
},
{
glyphname = whitecornerbracketright.vert;
lastChange = "2023-08-27 07:26:29 +0000";
layers = (
{
layerId = m01;
shapes = (
{
closed = 1;
nodes = (
(130,761,qs),
(130,557,ls),
(130,534,o),
(164,500,o),
(187,500,qs),
(791,500,ls),
(800,500,o),
(800,491,qs),
(800,438,ls),
(800,430,o),
(791,430,qs),
(68,430,ls),
(60,430,o),
(60,438,qs),
(60,761,ls),
(60,770,o),
(68,770,qs),
(121,770,ls),
(130,770,o)
);
},
{
closed = 1;
nodes = (
(40,444,o),
(74,410,o),
(97,410,qs),
(765,410,ls),
(788,410,o),
(820,442,o),
(820,488,o),
(788,520,o),
(765,520,qs),
(159,520,ls),
(150,520,o),
(150,529,qs),
(150,735,ls),
(150,758,o),
(118,790,o),
(72,790,o),
(40,758,o),
(40,735,qs),
(40,467,ls)
);
}
);
vertWidth = 1000;
width = 1000;
}
);
note = glyph08475;
},
{
glyphname = whitelenticularbracketleft.vert;
lastChange = "2023-08-27 07:26:29 +0000";
layers = (
{
layerId = m01;
shapes = (
{
closed = 1;
nodes = (
(920,221,qs),
(920,14,ls),
(920,6,o),
(913,11,qs),
(827,82,o),
(613,160,o),
(387,160,o),
(173,82,o),
(87,11,q),
(85,10,o),
(80,12,o),
(80,14,qs),
(80,221,ls),
(80,230,o),
(89,230,qs),
(911,230,ls),
(920,230,o)
);
},
{
closed = 1;
nodes = (
(60,1,o),
(89,-13,o),
(102,-2,qs),
(185,66,o),
(392,140,o),
(608,140,o),
(815,66,o),
(898,-2,qs),
(911,-13,o),
(940,1,o),
(940,17,qs),
(940,193,ls),
(940,216,o),
(906,250,o),
(883,250,qs),
(117,250,ls),
(94,250,o),
(60,216,o),
(60,193,qs),
(60,17,ls)
);
}
);
vertWidth = 1000;
width = 1000;
}
);
note = glyph08481;
},
{
glyphname = whitelenticularbracketright.vert;
lastChange = "2023-08-27 07:26:29 +0000";
layers = (
{
layerId = m01;
shapes = (
{
closed = 1;
nodes = (
(387,560,o),
(613,560,o),
(827,638,o),
(913,709,q),
(915,710,o),
(920,708,o),
(920,706,qs),
(920,499,ls),
(920,490,o),
(911,490,qs),
(88,490,ls),
(80,490,o),
(80,499,qs),
(80,706,ls),
(80,714,o),
(87,709,qs),
(173,638,o)
);
},
{
closed = 1;
nodes = (
(60,504,o),
(94,470,o),
(117,470,qs),
(883,470,ls),
(906,470,o),
(940,504,o),
(940,527,qs),
(940,703,ls),
(940,719,o),
(911,733,o),
(898,722,qs),
(815,654,o),
(608,580,o),
(392,580,o),
(185,654,o),
(102,722,qs),
(89,733,o),
(60,719,o),
(60,703,qs),
(60,527,ls)
);
}
);
vertWidth = 1000;
width = 1000;
}
);
note = glyph08482;
},
{
glyphname = braceleft.full.vert;
lastChange = "2023-08-27 07:26:29 +0000";
layers = (
{
layerId = m01;
shapes = (
{
closed = 1;
nodes = (
(640,215,qs),
(800,215,ls),
(870,215,o),
(920,165,o),
(920,115,qs),
(920,-25,ls),
(920,-35,o),
(940,-35,o),
(940,-25,qs),
(940,115,ls),
(940,178,o),
(874,235,o),
(800,235,qs),
(640,235,ls),
(581,235,o),
(510,278,o),
(510,315,qs),
(510,385,ls),
(510,395,o),
(490,395,o),
(490,385,qs),
(490,315,ls),
(490,278,o),
(419,235,o),
(360,235,qs),
(200,235,ls),
(126,235,o),
(60,178,o),
(60,115,qs),
(60,-25,ls),
(60,-35,o),
(80,-35,o),
(80,-25,qs),
(80,115,ls),
(80,165,o),
(130,215,o),
(200,215,qs),
(360,215,ls),
(464,215,o),
(498,273,q),
(498,275,o),
(502,275,o),
(502,273,q),
(536,215,o)
);
}
);
vertWidth = 1000;
width = 1000;
}
);
note = glyph08522;
},
{
glyphname = braceright.full.vert;
lastChange = "2023-08-27 07:26:29 +0000";
layers = (
{
layerId = m01;
shapes = (
{
closed = 1;
nodes = (
(360,505,qs),
(200,505,ls),
(130,505,o),
(80,555,o),
(80,605,qs),
(80,745,ls),
(80,755,o),
(60,755,o),
(60,745,qs),
(60,605,ls),
(60,542,o),
(126,485,o),
(200,485,qs),
(360,485,ls),
(419,485,o),
(490,442,o),
(490,405,qs),
(490,335,ls),
(490,325,o),
(510,325,o),
(510,335,qs),
(510,405,ls),
(510,442,o),
(581,485,o),
(640,485,qs),
(800,485,ls),
(874,485,o),
(940,542,o),
(940,605,qs),
(940,745,ls),
(940,755,o),
(920,755,o),
(920,745,qs),
(920,605,ls),
(920,555,o),
(870,505,o),
(800,505,qs),
(640,505,ls),
(536,505,o),
(502,447,q),
(502,445,o),
(498,445,o),
(498,447,q),
(464,505,o)
);
}
);
vertWidth = 1000;
width = 1000;
}
);
note = glyph08523;
},
{
glyphname = bracketleft.full.vert;
lastChange = "2023-08-27 07:26:29 +0000";
layers = (
{
layerId = m01;
shapes = (
{
closed = 1;
nodes = (
(60,-15,o),
(80,-15,o),
(80,-5,qs),
(80,266,ls),
(80,275,o),
(89,275,qs),
(912,275,ls),
(920,275,o),
(920,266,qs),
(920,-5,ls),
(920,-15,o),
(940,-15,o),
(940,-5,qs),
(940,238,ls),
(940,261,o),
(906,295,o),
(883,295,qs),
(117,295,ls),
(94,295,o),
(60,261,o),
(60,238,qs),
(60,-5,ls)
);
}
);
vertWidth = 1000;
width = 1000;
}
);
note = glyph08520;
},
{
glyphname = bracketright.full.vert;
lastChange = "2023-08-27 07:26:29 +0000";
layers = (
{
layerId = m01;
shapes = (
{
closed = 1;
nodes = (
(80,735,o),
(60,735,o),
(60,725,qs),
(60,482,ls),
(60,459,o),
(94,425,o),
(117,425,qs),
(883,425,ls),
(906,425,o),
(940,459,o),
(940,482,qs),
(940,725,ls),
(940,735,o),
(920,735,o),
(920,725,qs),
(920,454,ls),
(920,445,o),
(911,445,qs),
(88,445,ls),
(80,445,o),
(80,454,qs),
(80,725,ls)
);
}
);
vertWidth = 1000;
width = 1000;
}
);
note = glyph08521;
},
{
glyphname = parenleft.full.vert;
lastChange = "2023-08-27 07:26:29 +0000";
layers = (
{
layerId = m01;
shapes = (
{
closed = 1;
nodes = (
(60,11,qs),
(60,8,o),
(67,5,o),
(69,7,qs),
(239,215,o),
(761,215,o),
(931,7,qs),
(933,4,o),
(940,7,o),
(940,11,qs),
(940,26,o),
(930,38,qs),
(757,235,o),
(243,235,o),
(70,38,qs),
(60,26,o)
);
}
);
vertWidth = 1000;
width = 1000;
}
);
note = glyph08516;
},
{
glyphname = parenright.full.vert;
lastChange = "2023-08-27 07:26:29 +0000";
layers = (
{
layerId = m01;
shapes = (
{
closed = 1;
nodes = (
(60,713,o),
(60,709,qs),
(60,694,o),
(70,682,qs),
(243,485,o),
(757,485,o),
(930,682,qs),
(940,694,o),
(940,709,qs),
(940,712,o),
(933,715,o),
(931,713,qs),
(761,505,o),
(239,505,o),
(69,713,qs),
(67,716,o)
);
}
